<?xml version="1.0" encoding="UTF-8" standalone="no"?>
<!DOCTYPE svg PUBLIC "-//W3C//DTD SVG 1.1//EN" "http://www.w3.org/Graphics/SVG/1.1/DTD/svg11.dtd">
<svg version="1.1" xmlns="http://www.w3.org/2000/svg" xmlns:xlink="http://www.w3.org/1999/xlink" preserveAspectRatio="xMidYMid meet" viewBox="0 0 640 640" width="640" height="640"><defs><path d="M424.61 447.02C425.66 432.74 418.7 419.05 406.54 411.5C400.91 408 386.84 399.26 364.34 385.27C403.55 382.1 428.06 380.12 437.86 379.33C464.77 377.16 484.18 404.59 473.19 429.24C461.87 454.63 441 501.44 426.86 533.17C424.85 537.68 418.08 535.97 418.44 531.05C420.01 509.6 423.01 468.85 424.61 447.02Z" id="b15qbhpbJk"></path><path d="M250.99 457.5L390.28 457.5L377.18 489.64L264.09 489.64L250.99 457.5Z" id="a18RC0gX5G"></path><path d="M215.39 447.02C214.34 432.74 221.3 419.05 233.46 411.5C239.09 408 253.16 399.26 275.66 385.27C236.45 382.1 211.94 380.12 202.14 379.33C175.23 377.16 155.82 404.59 166.81 429.24C178.13 454.63 199 501.44 213.14 533.17C215.15 537.68 221.92 535.97 221.56 531.05C219.99 509.6 216.99 468.85 215.39 447.02Z" id="a4JSlWIh6l"></path><path d="M398.31 182.5C403.73 200.5 407.12 211.76 408.48 216.26C420.59 256.45 423.46 298.86 416.89 340.32C414.41 355.94 408.22 395 398.31 457.5C382.83 457.5 259.03 457.5 243.55 457.5C232.99 396.97 226.39 359.14 223.75 344.01C215.65 297.63 219.66 249.94 235.38 205.56C236.47 202.48 239.19 194.8 243.55 182.5C274.5 182.5 382.83 182.5 398.31 182.5Z" id="a19gZT6dYw"></path><path d="M395.51 189.25C346.35 201.81 294.91 201.81 245.76 189.25C245.19 189.11 243.74 188.74 241.43 188.15C241.53 187.88 241.58 187.74 241.58 187.74C249.04 166.46 258.9 146.09 270.94 127.02C283.3 107.45 294.16 94.26 303.53 87.47C303.58 87.43 303.61 87.41 303.61 87.41C313.87 79.97 327.65 79.62 338.27 86.53C338.27 86.53 339.12 87.09 340.81 88.19C351.77 95.32 363.79 110.2 376.89 132.81C386.87 150.05 394.55 168.52 399.73 187.76C399.73 187.76 399.76 187.89 399.84 188.15C397.53 188.74 396.08 189.11 395.51 189.25Z" id="e170kMYE6t"></path><path d="M320.63 320C293.04 320 270.63 297.59 270.63 270C270.63 242.4 293.04 220 320.63 220C348.23 220 370.63 242.4 370.63 270C370.63 297.59 348.23 320 320.63 320Z" id="gosj3twDe"></path><path d="M320.63 307.5C299.93 307.5 283.13 290.69 283.13 270C283.13 249.3 299.93 232.5 320.63 232.5C341.32 232.5 358.13 249.3 358.13 270C358.13 290.69 341.32 307.5 320.63 307.5Z" id="b1ZYFNLZI"></path><path d="M313.43 292.47C306.6 296.9 309.74 307.5 317.88 307.5C325.93 307.5 314.81 307.5 320.94 307.5C341.48 307.5 358.13 290.85 358.13 270.31C358.13 268.94 358.13 277.07 358.13 269.46C358.13 266.88 355.26 265.32 353.09 266.73C340.53 274.88 322.37 286.67 313.43 292.47Z" id="a7f1eZjLI"></path><path d="M275.66 489.64L370.63 489.64L370.63 640L275.66 640L275.66 489.64Z" id="a3z2pNicq4"></path><linearGradient id="gradientgCXkwZF07" gradientUnits="userSpaceOnUse" x1="323.15" y1="489.64" x2="323.15" y2="640"><stop style="stop-color: #fcff00;stop-opacity: 1" offset="0%"></stop><stop style="stop-color: #ff6900;stop-opacity: 0" offset="100%"></stop></linearGradient></defs><g><g><g><use xlink:href="#b15qbhpbJk" opacity="1" fill="#fa5050" fill-opacity="1"></use></g><g><use xlink:href="#a18RC0gX5G" opacity="1" fill="#49434a" fill-opacity="1"></use></g><g><use xlink:href="#a4JSlWIh6l" opacity="1" fill="#fa5050" fill-opacity="1"></use></g><g><use xlink:href="#a19gZT6dYw" opacity="1" fill="#e7e7e7" fill-opacity="1"></use><g><use xlink:href="#a19gZT6dYw" opacity="1" fill-opacity="0" stroke="#000000" stroke-width="1" stroke-opacity="0"></use></g></g><g><use xlink:href="#e170kMYE6t" opacity="1" fill="#fa5050" fill-opacity="1"></use><g><use xlink:href="#e170kMYE6t" opacity="1" fill-opacity="0" stroke="#000000" stroke-width="1" stroke-opacity="0"></use></g></g><g><use xlink:href="#gosj3twDe" opacity="1" fill="#49434a" fill-opacity="1"></use><g><use xlink:href="#gosj3twDe" opacity="1" fill-opacity="0" stroke="#000000" stroke-width="1" stroke-opacity="0"></use></g></g><g><use xlink:href="#b1ZYFNLZI" opacity="1" fill="#00fffc" fill-opacity="1"></use><g><use xlink:href="#b1ZYFNLZI" opacity="1" fill-opacity="0" stroke="#000000" stroke-width="1" stroke-opacity="0"></use></g></g><g><use xlink:href="#a7f1eZjLI" opacity="1" fill="#a5fffe" fill-opacity="1"></use></g><g><use xlink:href="#a3z2pNicq4" opacity="1" fill="url(#gradientgCXkwZF07)"></use></g></g></g></svg>