<?xml version="1.0" encoding="UTF-8" standalone="no"?>
<!DOCTYPE svg PUBLIC "-//W3C//DTD SVG 1.1//EN" "http://www.w3.org/Graphics/SVG/1.1/DTD/svg11.dtd">
<svg version="1.1" xmlns="http://www.w3.org/2000/svg" xmlns:xlink="http://www.w3.org/1999/xlink" preserveAspectRatio="xMidYMid meet" viewBox="0 0 1920 1080" width="1920" height="1080"><defs><path d="M0 0L1920 0L1920 1080L0 1080L0 0Z" id="g90ZGtIo5"></path><linearGradient id="gradientc2rvwcai5C" gradientUnits="userSpaceOnUse" x1="960" y1="0" x2="960" y2="1080"><stop style="stop-color: #111111;stop-opacity: 1" offset="0%"></stop><stop style="stop-color: #484848;stop-opacity: 1" offset="100%"></stop></linearGradient><path d="M211.44 201.67C211.44 209.95 204.72 216.67 196.44 216.67C188.16 216.67 181.44 209.95 181.44 201.67C181.44 193.4 188.16 186.67 196.44 186.67C204.72 186.67 211.44 193.4 211.44 201.67Z" id="h2hcXUM6xv"></path><path d="M235.75 201.67C235.75 205.81 232.39 209.17 228.25 209.17C224.11 209.17 220.75 205.81 220.75 201.67C220.75 197.53 224.11 194.17 228.25 194.17C232.39 194.17 235.75 197.53 235.75 201.67Z" id="c3BweH6B3n"></path><path d="M336.96 341.59C336.96 349.87 330.24 356.59 321.96 356.59C313.68 356.59 306.96 349.87 306.96 341.59C306.96 333.31 313.68 326.59 321.96 326.59C330.24 326.59 336.96 333.31 336.96 341.59Z" id="c3RAk97Sri"></path><path d="M107.3 505.64C107.3 513.92 100.58 520.64 92.3 520.64C84.03 520.64 77.3 513.92 77.3 505.64C77.3 497.36 84.03 490.64 92.3 490.64C100.58 490.64 107.3 497.36 107.3 505.64Z" id="adbWlv5FW"></path><path d="M287.99 617.97C287.99 626.25 281.27 632.97 272.99 632.97C264.72 632.97 257.99 626.25 257.99 617.97C257.99 609.69 264.72 602.97 272.99 602.97C281.27 602.97 287.99 609.69 287.99 617.97Z" id="boZgtzQ1O"></path><path d="M430.75 899.26C430.75 907.54 424.03 914.26 415.75 914.26C407.47 914.26 400.75 907.54 400.75 899.26C400.75 890.98 407.47 884.26 415.75 884.26C424.03 884.26 430.75 890.98 430.75 899.26Z" id="cuTuayFWV"></path><path d="M149.37 1001.24C149.37 1009.52 142.65 1016.24 134.37 1016.24C126.09 1016.24 119.37 1009.52 119.37 1001.24C119.37 992.96 126.09 986.24 134.37 986.24C142.65 986.24 149.37 992.96 149.37 1001.24Z" id="akVoo8hjj"></path><path d="M164.37 55.38C164.37 59.52 161.01 62.88 156.87 62.88C152.73 62.88 149.37 59.52 149.37 55.38C149.37 51.24 152.73 47.88 156.87 47.88C161.01 47.88 164.37 51.24 164.37 55.38Z" id="b1Va5irgF"></path><path d="M171.87 326.59C171.87 330.73 168.51 334.09 164.37 334.09C160.23 334.09 156.87 330.73 156.87 326.59C156.87 322.45 160.23 319.09 164.37 319.09C168.51 319.09 171.87 322.45 171.87 326.59Z" id="bLue2Jc6r"></path><path d="M250.75 490.64C250.75 494.78 247.39 498.14 243.25 498.14C239.11 498.14 235.75 494.78 235.75 490.64C235.75 486.5 239.11 483.14 243.25 483.14C247.39 483.14 250.75 486.5 250.75 490.64Z" id="b1IUwjNprt"></path><path d="M235.75 816.76C235.75 820.9 232.39 824.26 228.25 824.26C224.11 824.26 220.75 820.9 220.75 816.76C220.75 812.62 224.11 809.26 228.25 809.26C232.39 809.26 235.75 812.62 235.75 816.76Z" id="b119V9sNF3"></path><path d="M351.96 749.78C351.96 753.92 348.6 757.28 344.46 757.28C340.32 757.28 336.96 753.92 336.96 749.78C336.96 745.64 340.32 742.28 344.46 742.28C348.6 742.28 351.96 745.64 351.96 749.78Z" id="f8Pqu6p6Q"></path><path d="M553.25 965.55C553.25 969.69 549.89 973.05 545.75 973.05C541.61 973.05 538.25 969.69 538.25 965.55C538.25 961.41 541.61 958.05 545.75 958.05C549.89 958.05 553.25 961.41 553.25 965.55Z" id="bh7GMfeow"></path><path d="M527.05 757.28C527.05 761.42 523.69 764.78 519.55 764.78C515.41 764.78 512.05 761.42 512.05 757.28C512.05 753.14 515.41 749.78 519.55 749.78C523.69 749.78 527.05 753.14 527.05 757.28Z" id="b4JWvYiMu4"></path><path d="M459.46 652.28C459.46 656.42 456.1 659.78 451.96 659.78C447.82 659.78 444.46 656.42 444.46 652.28C444.46 648.14 447.82 644.78 451.96 644.78C456.1 644.78 459.46 648.14 459.46 652.28Z" id="bKUO04Ks1"></path><path d="M445.75 433.57C445.75 437.71 442.39 441.07 438.25 441.07C434.11 441.07 430.75 437.71 430.75 433.57C430.75 429.43 434.11 426.07 438.25 426.07C442.39 426.07 445.75 429.43 445.75 433.57Z" id="e1opgcQTS6"></path><path d="M648.43 849.35C648.43 853.49 645.06 856.85 640.93 856.85C636.79 856.85 633.43 853.49 633.43 849.35C633.43 845.21 636.79 841.85 640.93 841.85C645.06 841.85 648.43 845.21 648.43 849.35Z" id="as7UbgTdm"></path><path d="M711.87 934.09C711.87 938.23 708.51 941.59 704.37 941.59C700.23 941.59 696.87 938.23 696.87 934.09C696.87 929.95 700.23 926.59 704.37 926.59C708.51 926.59 711.87 929.95 711.87 934.09Z" id="c1gHZ32mHW"></path><path d="M589.11 532.5C589.11 536.64 585.75 540 581.61 540C577.48 540 574.11 536.64 574.11 532.5C574.11 528.36 577.48 525 581.61 525C585.75 525 589.11 528.36 589.11 532.5Z" id="c1HESo0jg"></path><path d="M680.15 458.74C680.15 462.88 676.79 466.24 672.65 466.24C668.51 466.24 665.15 462.88 665.15 458.74C665.15 454.6 668.51 451.24 672.65 451.24C676.79 451.24 680.15 454.6 680.15 458.74Z" id="c7VyrbS47z"></path><path d="M538.25 224.17C538.25 228.31 534.89 231.67 530.75 231.67C526.61 231.67 523.25 228.31 523.25 224.17C523.25 220.03 526.61 216.67 530.75 216.67C534.89 216.67 538.25 220.03 538.25 224.17Z" id="b2fBTpFC2h"></path><path d="M696.87 304.09C696.87 312.37 690.15 319.09 681.87 319.09C673.59 319.09 666.87 312.37 666.87 304.09C666.87 295.81 673.59 289.09 681.87 289.09C690.15 289.09 696.87 295.81 696.87 304.09Z" id="b1MJZZazPv"></path><path d="M719.37 686.93C719.37 695.21 712.65 701.93 704.37 701.93C696.09 701.93 689.37 695.21 689.37 686.93C689.37 678.65 696.09 671.93 704.37 671.93C712.65 671.93 719.37 678.65 719.37 686.93Z" id="akVhtoCrq"></path><path d="M840.15 143.48C840.15 147.62 836.79 150.98 832.65 150.98C828.51 150.98 825.15 147.62 825.15 143.48C825.15 139.35 828.51 135.98 832.65 135.98C836.79 135.98 840.15 139.35 840.15 143.48Z" id="c4zZ3TMgZU"></path><path d="M1010.49 252.36C1010.49 256.5 1007.13 259.86 1002.99 259.86C998.85 259.86 995.49 256.5 995.49 252.36C995.49 248.22 998.85 244.86 1002.99 244.86C1007.13 244.86 1010.49 248.22 1010.49 252.36Z" id="b4vRs5dzJC"></path><path d="M1142.91 109.52C1142.91 113.66 1139.55 117.02 1135.41 117.02C1131.27 117.02 1127.91 113.66 1127.91 109.52C1127.91 105.38 1131.27 102.02 1135.41 102.02C1139.55 102.02 1142.91 105.38 1142.91 109.52Z" id="a2ORqn3wTZ"></path><path d="M864.98 801.76C864.98 805.9 861.62 809.26 857.48 809.26C853.34 809.26 849.98 805.9 849.98 801.76C849.98 797.62 853.34 794.26 857.48 794.26C861.62 794.26 864.98 797.62 864.98 801.76Z" id="c6ZxMPkIAM"></path><path d="M983.6 906.76C983.6 910.9 980.24 914.26 976.1 914.26C971.96 914.26 968.6 910.9 968.6 906.76C968.6 902.62 971.96 899.26 976.1 899.26C980.24 899.26 983.6 902.62 983.6 906.76Z" id="aT1B7Mxt"></path><path d="M1117.3 794.26C1117.3 802.54 1110.58 809.26 1102.3 809.26C1094.03 809.26 1087.3 802.54 1087.3 794.26C1087.3 785.98 1094.03 779.26 1102.3 779.26C1110.58 779.26 1117.3 785.98 1117.3 794.26Z" id="ccY808RSo"></path><path d="M1387.65 929.26C1387.65 937.54 1380.93 944.26 1372.65 944.26C1364.37 944.26 1357.65 937.54 1357.65 929.26C1357.65 920.98 1364.37 914.26 1372.65 914.26C1380.93 914.26 1387.65 920.98 1387.65 929.26Z" id="igZCc4a5F"></path><path d="M1333.25 794.26C1333.25 798.4 1329.89 801.76 1325.75 801.76C1321.61 801.76 1318.25 798.4 1318.25 794.26C1318.25 790.12 1321.61 786.76 1325.75 786.76C1329.89 786.76 1333.25 790.12 1333.25 794.26Z" id="b1mzriOdsF"></path><path d="M1103.6 1041.76C1103.6 1045.9 1100.24 1049.26 1096.1 1049.26C1091.96 1049.26 1088.6 1045.9 1088.6 1041.76C1088.6 1037.62 1091.96 1034.26 1096.1 1034.26C1100.24 1034.26 1103.6 1037.62 1103.6 1041.76Z" id="b1KvYJzOP2"></path><path d="M1529.11 824.26C1529.11 828.4 1525.75 831.76 1521.61 831.76C1517.48 831.76 1514.11 828.4 1514.11 824.26C1514.11 820.12 1517.48 816.76 1521.61 816.76C1525.75 816.76 1529.11 820.12 1529.11 824.26Z" id="b131ESzpOq"></path><path d="M411.87 596.59C411.87 600.73 408.51 604.09 404.37 604.09C400.23 604.09 396.87 600.73 396.87 596.59C396.87 592.45 400.23 589.09 404.37 589.09C408.51 589.09 411.87 592.45 411.87 596.59Z" id="a7PiP9cpT"></path><path d="M1609.68 609.09C1610.44 613.16 1607.75 617.08 1603.68 617.84C1599.61 618.6 1595.69 615.91 1594.93 611.84C1594.17 607.78 1596.86 603.85 1600.93 603.09C1605 602.33 1608.92 605.02 1609.68 609.09Z" id="ax6je5IfK"></path><path d="M1617.3 926.59C1617.3 930.73 1613.94 934.09 1609.8 934.09C1605.67 934.09 1602.3 930.73 1602.3 926.59C1602.3 922.45 1605.67 919.09 1609.8 919.09C1613.94 919.09 1617.3 922.45 1617.3 926.59Z" id="d8VqWQTX8"></path><path d="M1739.37 816.76C1739.37 820.9 1736.01 824.26 1731.87 824.26C1727.73 824.26 1724.37 820.9 1724.37 816.76C1724.37 812.62 1727.73 809.26 1731.87 809.26C1736.01 809.26 1739.37 812.62 1739.37 816.76Z" id="ePzFhoPO3"></path><path d="M1444.2 659.78C1444.2 668.06 1437.48 674.78 1429.2 674.78C1420.92 674.78 1414.2 668.06 1414.2 659.78C1414.2 651.5 1420.92 644.78 1429.2 644.78C1437.48 644.78 1444.2 651.5 1444.2 659.78Z" id="n7a15190xd"></path><path d="M1252.48 389.35C1252.48 397.63 1245.76 404.35 1237.48 404.35C1229.2 404.35 1222.48 397.63 1222.48 389.35C1222.48 381.07 1229.2 374.35 1237.48 374.35C1245.76 374.35 1252.48 381.07 1252.48 389.35Z" id="b1230ZURHd"></path><path d="M538.25 224.17C538.25 228.31 534.89 231.67 530.75 231.67C526.61 231.67 523.25 228.31 523.25 224.17C523.25 220.03 526.61 216.67 530.75 216.67C534.89 216.67 538.25 220.03 538.25 224.17Z" id="b5MAkp3WTi"></path><path d="M696.87 304.09C696.87 312.37 690.15 319.09 681.87 319.09C673.59 319.09 666.87 312.37 666.87 304.09C666.87 295.81 673.59 289.09 681.87 289.09C690.15 289.09 696.87 295.81 696.87 304.09Z" id="b3exvCa7wm"></path><path d="M719.37 686.93C719.37 695.21 712.65 701.93 704.37 701.93C696.09 701.93 689.37 695.21 689.37 686.93C689.37 678.65 696.09 671.93 704.37 671.93C712.65 671.93 719.37 678.65 719.37 686.93Z" id="b8sqDfV3o"></path><path d="M840.15 143.48C840.15 147.62 836.79 150.98 832.65 150.98C828.51 150.98 825.15 147.62 825.15 143.48C825.15 139.35 828.51 135.98 832.65 135.98C836.79 135.98 840.15 139.35 840.15 143.48Z" id="h1RSqP40w"></path><path d="M800.15 593.74C800.15 597.88 796.79 601.24 792.65 601.24C788.51 601.24 785.15 597.88 785.15 593.74C785.15 589.6 788.51 586.24 792.65 586.24C796.79 586.24 800.15 589.6 800.15 593.74Z" id="a1aSYiu6Lo"></path><path d="M1484.2 475.64C1484.2 479.78 1480.84 483.14 1476.7 483.14C1472.56 483.14 1469.2 479.78 1469.2 475.64C1469.2 471.5 1472.56 468.14 1476.7 468.14C1480.84 468.14 1484.2 471.5 1484.2 475.64Z" id="c3otCcy9Oj"></path><path d="M1292.48 578.74C1292.48 582.88 1289.12 586.24 1284.98 586.24C1280.84 586.24 1277.48 582.88 1277.48 578.74C1277.48 574.6 1280.84 571.24 1284.98 571.24C1289.12 571.24 1292.48 574.6 1292.48 578.74Z" id="cczRQQw0Y"></path><path d="M1402.65 296.59C1402.65 300.73 1399.29 304.09 1395.15 304.09C1391.01 304.09 1387.65 300.73 1387.65 296.59C1387.65 292.45 1391.01 289.09 1395.15 289.09C1399.29 289.09 1402.65 292.45 1402.65 296.59Z" id="e1LaHiBcI5"></path><path d="M1412.48 713.74C1412.48 717.88 1409.12 721.24 1404.98 721.24C1400.84 721.24 1397.48 717.88 1397.48 713.74C1397.48 709.6 1400.84 706.24 1404.98 706.24C1409.12 706.24 1412.48 709.6 1412.48 713.74Z" id="a2Kn9ONgyj"></path><path d="M1644.89 267.36C1644.89 271.5 1641.53 274.86 1637.39 274.86C1633.25 274.86 1629.89 271.5 1629.89 267.36C1629.89 263.22 1633.25 259.86 1637.39 259.86C1641.53 259.86 1644.89 263.22 1644.89 267.36Z" id="i1rcimf7m"></path><path d="M1514.11 158.48C1514.11 162.62 1510.75 165.98 1506.61 165.98C1502.48 165.98 1499.11 162.62 1499.11 158.48C1499.11 154.35 1502.48 150.98 1506.61 150.98C1510.75 150.98 1514.11 154.35 1514.11 158.48Z" id="g1pUkqmZ5A"></path><path d="M1764.89 402.36C1764.89 406.5 1761.53 409.86 1757.39 409.86C1753.25 409.86 1749.89 406.5 1749.89 402.36C1749.89 398.22 1753.25 394.86 1757.39 394.86C1761.53 394.86 1764.89 398.22 1764.89 402.36Z" id="b1U9eoOZp9"></path><path d="M1807.65 165.98C1807.65 170.12 1804.29 173.48 1800.15 173.48C1796.01 173.48 1792.65 170.12 1792.65 165.98C1792.65 161.85 1796.01 158.48 1800.15 158.48C1804.29 158.48 1807.65 161.85 1807.65 165.98Z" id="d5KxPTKKVd"></path></defs><g><g><g><use xlink:href="#g90ZGtIo5" opacity="1" fill="url(#gradientc2rvwcai5C)"></use></g><g><use xlink:href="#h2hcXUM6xv" opacity="1" fill="#ffffff" fill-opacity="1"></use></g><g><use xlink:href="#c3BweH6B3n" opacity="1" fill="#ffffff" fill-opacity="1"></use></g><g><use xlink:href="#c3RAk97Sri" opacity="1" fill="#ffffff" fill-opacity="1"></use></g><g><use xlink:href="#adbWlv5FW" opacity="1" fill="#ffffff" fill-opacity="1"></use></g><g><use xlink:href="#boZgtzQ1O" opacity="1" fill="#ffffff" fill-opacity="1"></use></g><g><use xlink:href="#cuTuayFWV" opacity="1" fill="#ffffff" fill-opacity="1"></use></g><g><use xlink:href="#akVoo8hjj" opacity="1" fill="#ffffff" fill-opacity="1"></use></g><g><use xlink:href="#b1Va5irgF" opacity="1" fill="#ffffff" fill-opacity="1"></use></g><g><use xlink:href="#bLue2Jc6r" opacity="1" fill="#ffffff" fill-opacity="1"></use></g><g><use xlink:href="#b1IUwjNprt" opacity="1" fill="#ffffff" fill-opacity="1"></use></g><g><use xlink:href="#b119V9sNF3" opacity="1" fill="#ffffff" fill-opacity="1"></use></g><g><use xlink:href="#f8Pqu6p6Q" opacity="1" fill="#ffffff" fill-opacity="1"></use></g><g><use xlink:href="#bh7GMfeow" opacity="1" fill="#ffffff" fill-opacity="1"></use></g><g><use xlink:href="#b4JWvYiMu4" opacity="1" fill="#ffffff" fill-opacity="1"></use></g><g><use xlink:href="#bKUO04Ks1" opacity="1" fill="#ffffff" fill-opacity="1"></use></g><g><use xlink:href="#e1opgcQTS6" opacity="1" fill="#ffffff" fill-opacity="1"></use></g><g><use xlink:href="#as7UbgTdm" opacity="1" fill="#ffffff" fill-opacity="1"></use></g><g><use xlink:href="#c1gHZ32mHW" opacity="1" fill="#ffffff" fill-opacity="1"></use></g><g><use xlink:href="#c1HESo0jg" opacity="1" fill="#ffffff" fill-opacity="1"></use></g><g><use xlink:href="#c7VyrbS47z" opacity="1" fill="#ffffff" fill-opacity="1"></use></g><g><use xlink:href="#b2fBTpFC2h" opacity="1" fill="#ffffff" fill-opacity="1"></use></g><g><use xlink:href="#b1MJZZazPv" opacity="1" fill="#ffffff" fill-opacity="1"></use></g><g><use xlink:href="#akVhtoCrq" opacity="1" fill="#ffffff" fill-opacity="1"></use></g><g><use xlink:href="#c4zZ3TMgZU" opacity="1" fill="#ffffff" fill-opacity="1"></use></g><g><use xlink:href="#b4vRs5dzJC" opacity="1" fill="#ffffff" fill-opacity="1"></use></g><g><use xlink:href="#a2ORqn3wTZ" opacity="1" fill="#ffffff" fill-opacity="1"></use></g><g><use xlink:href="#c6ZxMPkIAM" opacity="1" fill="#ffffff" fill-opacity="1"></use></g><g><use xlink:href="#aT1B7Mxt" opacity="1" fill="#ffffff" fill-opacity="1"></use></g><g><use xlink:href="#ccY808RSo" opacity="1" fill="#ffffff" fill-opacity="1"></use></g><g><use xlink:href="#igZCc4a5F" opacity="1" fill="#ffffff" fill-opacity="1"></use></g><g><use xlink:href="#b1mzriOdsF" opacity="1" fill="#ffffff" fill-opacity="1"></use></g><g><use xlink:href="#b1KvYJzOP2" opacity="1" fill="#ffffff" fill-opacity="1"></use></g><g><use xlink:href="#b131ESzpOq" opacity="1" fill="#ffffff" fill-opacity="1"></use></g><g><use xlink:href="#a7PiP9cpT" opacity="1" fill="#ffffff" fill-opacity="1"></use></g><g><use xlink:href="#ax6je5IfK" opacity="1" fill="#ffffff" fill-opacity="1"></use></g><g><use xlink:href="#d8VqWQTX8" opacity="1" fill="#ffffff" fill-opacity="1"></use></g><g><use xlink:href="#ePzFhoPO3" opacity="1" fill="#ffffff" fill-opacity="1"></use></g><g><use xlink:href="#n7a15190xd" opacity="1" fill="#ffffff" fill-opacity="1"></use></g><g><use xlink:href="#b1230ZURHd" opacity="1" fill="#ffffff" fill-opacity="1"></use></g><g><use xlink:href="#b5MAkp3WTi" opacity="1" fill="#ffffff" fill-opacity="1"></use></g><g><use xlink:href="#b3exvCa7wm" opacity="1" fill="#ffffff" fill-opacity="1"></use></g><g><use xlink:href="#b8sqDfV3o" opacity="1" fill="#ffffff" fill-opacity="1"></use></g><g><use xlink:href="#h1RSqP40w" opacity="1" fill="#ffffff" fill-opacity="1"></use></g><g><use xlink:href="#a1aSYiu6Lo" opacity="1" fill="#ffffff" fill-opacity="1"></use></g><g><use xlink:href="#c3otCcy9Oj" opacity="1" fill="#ffffff" fill-opacity="1"></use></g><g><use xlink:href="#cczRQQw0Y" opacity="1" fill="#ffffff" fill-opacity="1"></use></g><g><use xlink:href="#e1LaHiBcI5" opacity="1" fill="#ffffff" fill-opacity="1"></use></g><g><use xlink:href="#a2Kn9ONgyj" opacity="1" fill="#ffffff" fill-opacity="1"></use></g><g><use xlink:href="#i1rcimf7m" opacity="1" fill="#ffffff" fill-opacity="1"></use></g><g><use xlink:href="#g1pUkqmZ5A" opacity="1" fill="#ffffff" fill-opacity="1"></use></g><g><use xlink:href="#b1U9eoOZp9" opacity="1" fill="#ffffff" fill-opacity="1"></use></g><g><use xlink:href="#d5KxPTKKVd" opacity="1" fill="#ffffff" fill-opacity="1"></use></g></g></g></svg>